<svg xmlns="http://www.w3.org/2000/svg" xmlns:xlink="http://www.w3.org/1999/xlink" width="30" height="28.84" viewBox="0 0 30 28.84">
  <defs>
    <clipPath id="clip-ic-chat">
      <rect width="30" height="28.84"/>
    </clipPath>
  </defs>
  <g id="ic-chat" clip-path="url(#clip-ic-chat)">
    <path id="Path_96456" data-name="Path 96456" d="M2700.69,398c-7,0-12.69,5.17-12.69,11.54a11,11,0,0,0,3.92,8.31,6.409,6.409,0,0,1-2.39,3.26h0a.58.58,0,0,0-.33.75.56.56,0,0,0,.65.35,9.21,9.21,0,0,0,5.67-2.16,12.582,12.582,0,0,0,2.26.7,9.359,9.359,0,0,1-.55-3.14c0-5.73,5.18-10.39,11.54-10.39a12.588,12.588,0,0,1,4.5.83C2712.46,402.38,2707.15,398,2700.69,398Zm8.08,11.54c-5.1,0-9.23,3.61-9.23,8.07s4.13,8.08,9.23,8.08a10.319,10.319,0,0,0,3.44-.59,8.909,8.909,0,0,0,5.09,1.73.58.58,0,0,0,.67-.46.589.589,0,0,0-.35-.64,6.62,6.62,0,0,1-2.14-2.58,7.559,7.559,0,0,0,2.52-5.54C2718,413.16,2713.87,409.54,2708.77,409.54Z" transform="translate(-2688 -398)" fill="#fff"/>
  </g>
</svg>
